# AST/ASF file generated using VICON BodyLanguage
# -----------------------------------------------
:version 1.10
:name VICON
:units
  mass 1.0
  length 0.45
  angle deg
:documentation
   .ast/.asf automatically generated from VICON data using
   VICON BodyBuilder and BodyLanguage model FoxedUp or BRILLIANT.MOD
:root
   order TX TY TZ RX RY RZ
   axis XYZ
   position 0 0 0  
   orientation 0 0 0 
:bonedata
  begin
     id 1 
     name lhipjoint
     direction 0.561145 -0.797705 0.220866 
     length 2.46425 
     axis 0 0 0  XYZ
  end
  begin
     id 2 
     name lfemur
     direction 0.34202 -0.939693 0  
     length 7.95556  
     axis 0 0 20  XYZ
    dof rx ry rz
    limits (-160.0 20.0)
           (-70.0 70.0)
           (-60.0 70.0)
  end
  begin
     id 3 
     name ltibia
     direction 0.34202 -0.939693 0   
     length 7.9832   
     axis 0 0 20   XYZ
    dof rx
    limits (-10.0 170.0)
  end
  begin
     id 4 
     name lfoot
     direction 0.0723927 -0.198897 0.977343   
     length 2.23085   
     axis -90 7.62852e-016 20   XYZ
    dof rx rz
    limits (-45.0 90.0)
           (-70.0 20.0)
  end
  begin
     id 5 
     name ltoes
     direction 1.53826e-011 -4.21988e-011 1   
     length 1.12127   
     axis -90 7.62852e-016 20   XYZ
    dof rx
    limits (-90.0 20.0)
  end
  begin
     id 6 
     name rhipjoint
     direction -0.610499 -0.763299 0.21134   
     length 2.57533  
     axis 0 0 0  XYZ 
  end
  begin
     id 7 
     name rfemur
     direction -0.34202 -0.939693 0   
     length 8.65257   
     axis 0 0 -20   XYZ
    dof rx ry rz
    limits (-160.0 20.0)
           (-70.0 70.0)
           (-70.0 60.0)
  end
  begin
     id 8 
     name rtibia
     direction -0.342021 -0.939692 0   
     length 7.37807   
     axis 0 0 -20   XYZ
    dof rx
    limits (-10.0 170.0)
 end
 begin
     id 9 
     name rfoot
     direction -0.0239304 -0.0543852 0.998233   
     length 1.87018  
     axis -90 -7.62852e-016 -20   XYZ
    dof rx rz
    limits (-45.0 90.0)
           (-20.0 70.0)
  end
  begin
     id 10 
     name rtoes
     direction -1.53584e-011 -4.2242e-011 1   
     length 0.951568   
     axis -90 -7.62852e-016 -20   XYZ
    dof rx
    limits (-90.0 20.0)
  end
  begin
     id 11 
     name lowerback
     direction 0.00322089 0.999033 0.0438587   
     length 2.07568   
     axis 0 0 0   XYZ
    dof rx ry rz
    limits (-20.0 45.0)
           (-30.0 30.0)
           (-30.0 30.0)
  end
  begin
     id 12 
     name upperback
     direction -0.00321932 0.999732 -0.0229403   
     length 2.06253   
     axis 0 0 0   XYZ
    dof rx ry rz
    limits (-20.0 45.0)
           (-30.0 30.0)
           (-30.0 30.0)
  end
  begin
     id 13 
     name thorax
     direction -0.00537537 0.998955 -0.0453918   
     length 2.06975   
     axis 0 0 0   XYZ
    dof rx ry rz
    limits (-20.0 45.0)
           (-30.0 30.0)
           (-30.0 30.0)
  end
  begin
     id 14 
     name lowerneck
     direction -0.00013604 0.994111 0.108363   
     length 1.50836   
     axis 0 0 0   XYZ
    dof rx ry rz
    limits (-20.0 45.0)
           (-30.0 30.0)
           (-30.0 30.0)
  end
  begin
     id 15 
     name upperneck
     direction 0.0397262 0.983859 -0.174482   
     length 1.53037   
     axis 0 0 0   XYZ
    dof rx ry rz
    limits (-20.0 45.0)
           (-30.0 30.0)
           (-30.0 30.0)
  end
  begin
     id 16
     name head
     direction 0.0109991 0.997082 -0.0755378  
     length 1.56928  
     axis 0 0 0   XYZ
    dof rx ry rz
    limits (-20.0 45.0)
           (-30.0 30.0)
           (-30.0 30.0)
  end
  begin
     id 17 
     name lclavicle
     direction 0.964749 0.254 -0.068874  
     length 3.26503  
     axis 0 0 0   XYZ
    dof ry rz
    limits (-20.0 10.0)
           (0.0 20.0)
  end
  begin
     id 18 
     name lhumerus
     direction 1 -4.48941e-011 -2.05079e-027   
     length 5.68236   
     axis 180 -30 -90   XYZ
    dof rx ry rz
    limits (-60.0 90.0)
           (-90.0 90.0)
           (-90.0 90.0)
  end
  begin
     id 19
     name lradius
     direction 1 -4.48956e-011 6.2882e-027   
     length 3.17112   
     axis 180 -30 -90   XYZ
    dof rx
    limits (-10.0 170.0)
  end
  begin
     id 20
     name lwrist
     direction 1 -4.49014e-011 1.73219e-026   
     length 1.58556   
     axis -1.04724e-014 90 90   XYZ
    dof ry
    limits (-180.0 0.0)
 end
  begin
     id 21 
     name lhand
     direction 1 -4.49312e-011 3.46438e-026   
     length 0.632691   
     axis -2.21057e-014 90 90   XYZ
    dof rx rz
    limits (-90.0 90.0)
           (-45.0 45.0)
  end
  begin
     id 22 
     name lfingers
     direction 1 -4.48894e-011 6.92876e-026   
     length 0.510091   
     axis -4.42114e-014 90 90   XYZ
    dof rx
    limits (0.0 90.0)
  end
  begin
     id 23
     name lthumb
     direction 0.707107 -6.34705e-011 0.707107   
     length 0.732392   
     axis -90 45 2.85299e-015   XYZ
    dof rx rz
    limits (-45.0 45.0)
           (-45.0 45.0)
  end
  begin
     id 24 
     name rclavicle
     direction -0.954374 0.280496 -0.102435   
     length 3.25419  
     axis 0 0 0   XYZ 
    dof ry rz
    limits (-10.0 20.0)
           (-20.0 0.0)
  end
  begin
     id 25 
     name rhumerus
     direction -1 -4.48994e-011 -1.07204e-017  
     length 5.8712   
     axis 180 30 90   XYZ
    dof rx ry rz
    limits (-90.0 60.0)
           (-90.0 90.0)
           (-90.0 90.0)
  end
  begin
     id 26 
     name rradius
     direction -1 -4.48972e-011 5.89292e-027   
     length 3.37589   
     axis 180 30 90   XYZ
    dof rx
    limits (-10.0 170.0)
  end
  begin
     id 27 
     name rwrist
     direction -1 -4.48942e-011 1.73219e-026   
     length 1.68794   
     axis -1.04724e-014 -90 -90   XYZ
    dof ry
    limits (-180.0 0.0)
  end
  begin
     id 28
     name rhand
     direction -1 -4.48514e-011 3.46438e-026   
     length 0.603257   
     axis -2.21057e-014 -90 -90   XYZ
    dof rx rz
    limits (-90.0 90.0)
           (-45.0 45.0)
  end
  begin
     id 29
     name rfingers
     direction -1 -4.50028e-011 6.92876e-026   
     length 0.486362   
     axis -4.42114e-014 -90 -90   XYZ
    dof rx
    limits (0.0 90.0)
  end
  begin
     id 30
     name rthumb
     direction -0.707107 -6.34926e-011 0.707107   
     length 0.698321   
     axis -90 -45 -2.85299e-015   XYZ
    dof rx rz
    limits (-45.0 45.0)
           (-45.0 45.0)
  end
:hierarchy
  begin
    root lhipjoint rhipjoint lowerback
    lhipjoint lfemur
    lfemur ltibia
    ltibia lfoot
    lfoot ltoes
    rhipjoint rfemur
    rfemur rtibia
    rtibia rfoot
    rfoot rtoes
    lowerback upperback
    upperback thorax
    thorax lowerneck lclavicle rclavicle
    lowerneck upperneck
    upperneck head
    lclavicle lhumerus
    lhumerus lradius
    lradius lwrist
    lwrist lhand lthumb
    lhand lfingers
    rclavicle rhumerus
    rhumerus rradius
    rradius rwrist
    rwrist rhand rthumb
    rhand rfingers
  end

#!OML:ASF I:\Segmentation\Patient Classification 1\Patient 1\Session 1\Patient1.ASF
:FULLY-SPECIFIED
:DEGREES
899
root 15.3373 18.414 -8.04306 -350.036 -39.7914 -1.56814
lowerback -8.50552 -0.653966 -4.31481
upperback 3.00196 -0.368631 -0.0665338
thorax 7.99188 -0.397534 2.30137
lowerneck -18.005 -2.15101 -2.76046
upperneck 20.648 -3.40667 4.71817
head 9.64264 -1.28357 1.63593
rclavicle -6.16232e-015 -1.23246e-014
rhumerus -39.0268 -11.9485 -77.1875
rradius 34.871
rwrist 17.1119
rhand -15.2126 28.9739
rfingers 7.12502
rthumb 10.9597 -0.720007
lclavicle -6.16232e-015 -1.23246e-014
lhumerus -25.1126 -7.00022 86.3401
lradius 26.7258
lwrist 8.39071
lhand -14.4704 34.0761
lfingers 7.12502
lthumb 11.6755 63.7307
rfemur -27.9065 2.4247 19.2954
rtibia 49.6192
rfoot 3.95344 4.46706
rtoes -31.746
lfemur -21.1158 -1.00426 -22.9425
ltibia 29.3369
lfoot -30.0135 12.4611
ltoes -0.350075
900
root 15.3181 18.4088 -8.00714 -349.973 -39.7246 -1.5294
lowerback -8.52389 -0.71397 -4.47271
upperback 2.99212 -0.427724 -0.0940976
thorax 7.99852 -0.433549 2.35187
lowerneck -18.0144 -2.17084 -2.77545
upperneck 20.5839 -3.44467 4.79304
head 9.6253 -1.29417 1.65885
rclavicle 3.84648e-014 3.97569e-015
rhumerus -39.2196 -12.0415 -77.0914
rradius 34.8736
rwrist 16.9344
rhand -14.6493 29.0417
rfingers 7.12502
rthumb 11.503 -0.622729
lclavicle 3.84648e-014 3.97569e-015
lhumerus -24.8251 -6.67407 86.1991
lradius 26.567
lwrist 8.19046
lhand -14.5229 34.5039
lfingers 7.12502
lthumb 11.6249 64.1615
rfemur -28.2718 2.41419 19.3699
rtibia 48.765
rfoot 4.05059 4.89292
rtoes -28.909
lfemur -21.0995 -1.22774 -22.9918
ltibia 29.4114
lfoot -30.3238 12.4751
ltoes -0.170898
901
root 15.2982 18.404 -7.97181 -349.909 -39.6462 -1.51302
lowerback -8.53204 -0.773093 -4.61396
upperback 2.99093 -0.488258 -0.11674
thorax 8.00874 -0.469792 2.39793
lowerneck -17.986 -2.19156 -2.78854
upperneck 20.4561 -3.4846 4.88012
head 9.57896 -1.30523 1.68518
rclavicle -8.2595e-014 -4.37326e-015
rhumerus -39.3892 -12.1165 -77.0034
rradius 34.855
rwrist 16.8086
rhand -14.2476 29.1239
rfingers 7.12502
rthumb 11.8904 -0.518498
lclavicle -8.2595e-014 -4.37326e-015
lhumerus -24.5462 -6.42576 86.0746
lradius 26.4507
lwrist 8.09782
lhand -14.5351 34.8114
lfingers 7.12502
lthumb 11.6131 64.4696
rfemur -28.5889 2.365 19.4922
rtibia 47.836
rfoot 4.14404 5.28334
rtoes -25.7742
lfemur -21.0665 -1.40525 -23.0248
ltibia 29.475
lfoot -30.5922 12.4756
ltoes -0.0594482
902
root 15.2776 18.4003 -7.93709 -349.841 -39.5681 -1.52442
lowerback -8.52632 -0.829808 -4.73437
upperback 2.99932 -0.54904 -0.132465
thorax 8.02126 -0.505531 2.43956
lowerneck -17.9428 -2.21076 -2.81657
upperneck 20.2903 -3.52137 4.98899
head 9.51729 -1.31414 1.72178
rclavicle -3.63776e-014 1.43125e-014
rhumerus -39.5264 -12.1641 -76.9362
rradius 34.8054
rwrist 16.7777
rhand -14.1396 29.1944
rfingers 7.12502
rthumb 11.9945 -0.441951
lclavicle -3.63776e-014 1.43125e-014
lhumerus -24.2819 -6.2561 85.9653
lradius 26.3725
lwrist 8.13953
lhand -14.5359 34.8952
lfingers 7.12502
lthumb 11.6123 64.5534
rfemur -28.8549 2.29418 19.6601
rtibia 46.8435
rfoot 4.21023 5.59436
rtoes -22.6563
lfemur -21.0118 -1.51318 -23.0369
ltibia 29.5253
lfoot -30.7806 12.4566
ltoes -0.0289818
903
root 15.2569 18.3977 -7.90285 -349.774 -39.491 -1.56609
lowerback -8.49128 -0.885244 -4.82188
upperback 3.01266 -0.614093 -0.140598
thorax 8.02214 -0.541753 2.47021
lowerneck -17.909 -2.22792 -2.8662
upperneck 20.129 -3.55216 5.11138
head 9.45954 -1.32035 1.76742
rclavicle 4.27387e-015 2.14687e-014
rhumerus -39.6333 -12.205 -76.878
rradius 34.7223
rwrist 16.8505
rhand -14.2632 29.2287
rfingers 7.12502
rthumb 11.8754 -0.414493
lclavicle 4.27387e-015 2.14687e-014
lhumerus -24.0464 -6.17149 85.8789
lradius 26.3353
lwrist 8.32102
lhand -14.5624 34.7627
lfingers 7.12502
lthumb 11.5868 64.4224
rfemur -29.0645 2.19594 19.8717
rtibia 45.7994
rfoot 4.22995 5.77417
rtoes -19.8671
lfemur -20.9298 -1.55577 -23.0254
ltibia 29.5614
lfoot -30.8708 12.3989
ltoes -0.0110302
904
root 15.2366 18.3957 -7.86864 -349.716 -39.411 -1.63668
lowerback -8.42076 -0.940673 -4.86693
upperback 3.02949 -0.686674 -0.141158
thorax 8.00621 -0.579413 2.48415
lowerneck -17.9031 -2.24351 -2.93077
upperneck 20.0015 -3.57624 5.2283
head 9.41867 -1.32454 1.8146
rclavicle 9.14409e-014 -3.33958e-014
rhumerus -39.7103 -12.2772 -76.8011
rradius 34.5986
rwrist 17.007
rhand -14.4314 29.2367
rfingers 7.12502
rthumb 11.7131 -0.415796
lclavicle 9.14409e-014 -3.33958e-014
lhumerus -23.8423 -6.16609 85.8218
lradius 26.345
lwrist 8.585
lhand -14.6307 34.5309
lfingers 7.12502
lthumb 11.5209 64.1943
rfemur -29.2127 2.05077 20.1277
rtibia 44.7146
rfoot 4.20529 5.77446
rtoes -17.5612
lfemur -20.8139 -1.58343 -22.9873
ltibia 29.5852
lfoot -30.9029 12.2899
ltoes 0.143993
905
root 15.2166 18.3941 -7.83374 -349.679 -39.3325 -1.72396
lowerback -8.32042 -0.993628 -4.87615
upperback 3.05304 -0.762134 -0.136031
thorax 7.97984 -0.616741 2.48385
lowerneck -17.9246 -2.25872 -3.00367
upperneck 19.9122 -3.59493 5.32887
head 9.39583 -1.32791 1.85833
rclavicle 8.07066e-014 -1.35174e-014
rhumerus -39.7622 -12.3985 -76.6883
rradius 34.4348
rwrist 17.208
rhand -14.5282 29.2404
rfingers 7.12502
rthumb 11.6198 -0.417411
lclavicle 8.07066e-014 -1.35174e-014
lhumerus -23.6606 -6.21613 85.7922
lradius 26.4058
lwrist 8.8228
lhand -14.725 34.3447
lfingers 7.12502
lthumb 11.4299 64.0131
rfemur -29.2904 1.8453 20.4221
rtibia 43.5985
rfoot 4.16644 5.58048
rtoes -15.6499
lfemur -20.6533 -1.65767 -22.9304
ltibia 29.601
lfoot -30.9572 12.1467
ltoes 0.543359
906
root 15.1968 18.3929 -7.79771 -349.68 -39.2646 -1.81114
lowerback -8.19763 -1.03692 -4.86153
upperback 3.084 -0.828398 -0.132822
thorax 7.94709 -0.648358 2.46985
lowerneck -17.9477 -2.27777 -3.07653
upperneck 19.8429 -3.61649 5.41481
head 9.3801 -1.33407 1.89673
rclavicle 1.68967e-014 -3.18055e-015
rhumerus -39.8105 -12.5562 -76.5485
rradius 34.2539
rwrist 17.4029
rhand -14.5485 29.2261
rfingers 7.12502
rthumb 11.6002 -0.432786
lclavicle 1.68967e-014 -3.18055e-015
lhumerus -23.4989 -6.31196 85.78
lradius 26.5168
lwrist 8.97182
lhand -14.8402 34.2543
lfingers 7.12502
lthumb 11.3189 63.9289
rfemur -29.2906 1.58544 20.7404
rtibia 42.4572
rfoot 4.14068 5.21116
rtoes -13.9776
lfemur -20.4435 -1.777 -22.8737
ltibia 29.6131
lfoot -31.065 12.0194
ltoes 1.02565
907
root 15.1769 18.3924 -7.76065 -349.717 -39.2203 -1.88686
lowerback -8.06824 -1.06468 -4.83425
upperback 3.1211 -0.874854 -0.139082
thorax 7.91498 -0.669566 2.4419
lowerneck -17.9456 -2.30125 -3.13588
upperneck 19.7673 -3.64514 5.48769
head 9.35743 -1.34446 1.92742
rclavicle -7.7526e-015 6.36111e-015
rhumerus -39.8708 -12.7274 -76.4008
rradius 34.0826
rwrist 17.5549
rhand -14.5175 29.1899
rfingers 7.12502
rthumb 11.6301 -0.467373
lclavicle -7.7526e-015 6.36111e-015
lhumerus -23.3609 -6.4569 85.7728
lradius 26.6759
lwrist 9.03853
lhand -14.9641 34.2094
lfingers 7.12502
lthumb 11.1993 63.8904
rfemur -29.2211 1.30208 21.0649
rtibia 41.2942
rfoot 4.12862 4.6986
rtoes -12.505
lfemur -20.1972 -1.87136 -22.8349
ltibia 29.6259
lfoot -31.1891 11.941
ltoes 1.3097
